<svg xmlns="http://www.w3.org/2000/svg" width="128" height="128">
  <rect width="110" height="110" x="9" y="9" ry="10" stroke="#000" stroke-width="10" fill="#fff"></rect>
  <path d="M 23.569 58.269 L 23.569 21.904 L 34.227 21.904 L 44.885 35.274 L 55.544 21.904 L 66.202 21.904 L 66.202 58.269 L 55.544 58.269 L 55.544 37.413 L 44.885 50.782 L 34.227 37.413 L 34.227 58.269 Z M 90.184 58.269 L 74.196 40.622 L 84.854 40.622 L 84.854 21.904 L 95.512 21.904 L 95.512 40.622 L 106.171 40.622 Z" style=""></path>
  <text style="font-family: Arial; font-size: 36px; font-weight: 600; letter-spacing: -0.5px; white-space: pre; text-decoration: underline solid;" x="22" y="96">LINK</text>
  <path style="stroke: rgb(255, 79, 79); stroke-width: 1.5px;" d="M 22 103 c 1 1 1 1 2 0 c 1 -1 1 -1 2 0 c 1 1 1 1 2 0 c 1 -1 1 -1 2 0 c 1 1 1 1 2 0 c 1 -1 1 -1 2 0 c 1 1 1 1 2 0 c 1 -1 1 -1 2 0 c 1 1 1 1 2 0 c 1 -1 1 -1 2 0 c 1 1 1 1 2 0 c 1 -1 1 -1 2 0 c 1 1 1 1 2 0 c 1 -1 1 -1 2 0 c 1 1 1 1 2 0 c 1 -1 1 -1 2 0 c 1 1 1 1 2 0 c 1 -1 1 -1 2 0 c 1 1 1 1 2 0 c 1 -1 1 -1 2 0 c 1 1 1 1 2 0 c 1 -1 1 -1 2 0 c 1 1 1 1 2 0 c 1 -1 1 -1 2 0 c 1 1 1 1 2 0 c 1 -1 1 -1 2 0 c 1 1 1 1 2 0 c 1 -1 1 -1 2 0 c 1 1 1 1 2 0 c 1 -1 1 -1 2 0 c 1 1 1 1 2 0 c 1 -1 1 -1 2 0 c 1 1 1 1 2 0 c 1 -1 1 -1 2 0 c 1 1 1 1 2 0 c 1 -1 1 -1 2 0 c 1 1 1 1 2 0 c 1 -1 1 -1 2 0 c 1 1 1 1 2 0 c 1 -1 1 -1 2 0 c 1 1 1 1 2 0 "></path>
</svg>